<mxfile host="app.diagrams.net" agent="Mozilla/5.0 (Windows NT 10.0; Win64; x64) AppleWebKit/537.36 (KHTML, like Gecko) Chrome/135.0.0.0 Safari/537.36" version="26.2.14">
  <diagram name="Page-1" id="X60v2k_hJAwZf_djKwn5">
    <mxGraphModel dx="2793" dy="1765" grid="1" gridSize="10" guides="1" tooltips="1" connect="1" arrows="1" fold="1" page="1" pageScale="1" pageWidth="850" pageHeight="1100" math="0" shadow="0">
      <root>
        <mxCell id="0" />
        <mxCell id="1" parent="0" />
        <mxCell id="nPi77BHWpsiQktwZck_b-1" value="" style="shape=umlLifeline;perimeter=lifelinePerimeter;whiteSpace=wrap;html=1;container=1;dropTarget=0;collapsible=0;recursiveResize=0;outlineConnect=0;portConstraint=eastwest;newEdgeStyle={&quot;curved&quot;:0,&quot;rounded&quot;:0};participant=umlActor;" vertex="1" parent="1">
          <mxGeometry x="-850" y="-40" width="30" height="2040" as="geometry" />
        </mxCell>
        <mxCell id="nPi77BHWpsiQktwZck_b-2" value="Company" style="text;html=1;align=center;verticalAlign=middle;resizable=0;points=[];autosize=1;strokeColor=none;fillColor=none;fontSize=14;fontStyle=1" vertex="1" parent="1">
          <mxGeometry x="-875" y="-72" width="80" height="30" as="geometry" />
        </mxCell>
        <mxCell id="nPi77BHWpsiQktwZck_b-3" value="company-homepage" style="shape=umlLifeline;perimeter=lifelinePerimeter;whiteSpace=wrap;html=1;container=1;dropTarget=0;collapsible=0;recursiveResize=0;outlineConnect=0;portConstraint=eastwest;newEdgeStyle={&quot;curved&quot;:0,&quot;rounded&quot;:0};fontSize=14;fontStyle=1" vertex="1" parent="1">
          <mxGeometry x="-720" y="-42" width="160" height="2042" as="geometry" />
        </mxCell>
        <mxCell id="nPi77BHWpsiQktwZck_b-4" value="" style="html=1;points=[[0,0,0,0,5],[0,1,0,0,-5],[1,0,0,0,5],[1,1,0,0,-5]];perimeter=orthogonalPerimeter;outlineConnect=0;targetShapes=umlLifeline;portConstraint=eastwest;newEdgeStyle={&quot;curved&quot;:0,&quot;rounded&quot;:0};strokeColor=#000000;fillColor=#dae8fc;" vertex="1" parent="nPi77BHWpsiQktwZck_b-3">
          <mxGeometry x="75" y="82" width="10" height="98" as="geometry" />
        </mxCell>
        <mxCell id="nPi77BHWpsiQktwZck_b-5" value="Selects&amp;nbsp;&lt;div&gt;&quot;Assigned Positions&quot;&lt;/div&gt;" style="text;html=1;align=center;verticalAlign=middle;resizable=0;points=[];autosize=1;strokeColor=none;fillColor=none;fontSize=13;fontStyle=2" vertex="1" parent="1">
          <mxGeometry x="-805" y="30" width="140" height="40" as="geometry" />
        </mxCell>
        <mxCell id="nPi77BHWpsiQktwZck_b-6" value="" style="endArrow=classic;html=1;rounded=0;" edge="1" parent="1" source="nPi77BHWpsiQktwZck_b-1">
          <mxGeometry width="50" height="50" relative="1" as="geometry">
            <mxPoint x="-825.5" y="70" as="sourcePoint" />
            <mxPoint x="-645" y="70" as="targetPoint" />
          </mxGeometry>
        </mxCell>
        <mxCell id="nPi77BHWpsiQktwZck_b-7" value="CompanyController" style="shape=umlLifeline;perimeter=lifelinePerimeter;whiteSpace=wrap;html=1;container=1;dropTarget=0;collapsible=0;recursiveResize=0;outlineConnect=0;portConstraint=eastwest;newEdgeStyle={&quot;curved&quot;:0,&quot;rounded&quot;:0};fontSize=14;fontStyle=1" vertex="1" parent="1">
          <mxGeometry x="-510" y="-40" width="140" height="2040" as="geometry" />
        </mxCell>
        <mxCell id="nPi77BHWpsiQktwZck_b-8" value="" style="html=1;points=[[0,0,0,0,5],[0,1,0,0,-5],[1,0,0,0,5],[1,1,0,0,-5]];perimeter=orthogonalPerimeter;outlineConnect=0;targetShapes=umlLifeline;portConstraint=eastwest;newEdgeStyle={&quot;curved&quot;:0,&quot;rounded&quot;:0};strokeColor=#000000;fillColor=#dae8fc;" vertex="1" parent="nPi77BHWpsiQktwZck_b-7">
          <mxGeometry x="65" y="110" width="10" height="210" as="geometry" />
        </mxCell>
        <mxCell id="nPi77BHWpsiQktwZck_b-9" value="" style="html=1;points=[[0,0,0,0,5],[0,1,0,0,-5],[1,0,0,0,5],[1,1,0,0,-5]];perimeter=orthogonalPerimeter;outlineConnect=0;targetShapes=umlLifeline;portConstraint=eastwest;newEdgeStyle={&quot;curved&quot;:0,&quot;rounded&quot;:0};strokeColor=#000000;fillColor=#dae8fc;" vertex="1" parent="nPi77BHWpsiQktwZck_b-7">
          <mxGeometry x="65" y="390" width="10" height="78" as="geometry" />
        </mxCell>
        <mxCell id="nPi77BHWpsiQktwZck_b-122" value="" style="html=1;points=[[0,0,0,0,5],[0,1,0,0,-5],[1,0,0,0,5],[1,1,0,0,-5]];perimeter=orthogonalPerimeter;outlineConnect=0;targetShapes=umlLifeline;portConstraint=eastwest;newEdgeStyle={&quot;curved&quot;:0,&quot;rounded&quot;:0};strokeColor=#000000;fillColor=#dae8fc;" vertex="1" parent="nPi77BHWpsiQktwZck_b-7">
          <mxGeometry x="65" y="1338" width="10" height="142" as="geometry" />
        </mxCell>
        <mxCell id="nPi77BHWpsiQktwZck_b-12" value="" style="endArrow=classic;html=1;rounded=0;" edge="1" parent="1" source="nPi77BHWpsiQktwZck_b-4" target="nPi77BHWpsiQktwZck_b-7">
          <mxGeometry width="50" height="50" relative="1" as="geometry">
            <mxPoint x="-550" y="290" as="sourcePoint" />
            <mxPoint x="-500" y="240" as="targetPoint" />
          </mxGeometry>
        </mxCell>
        <mxCell id="nPi77BHWpsiQktwZck_b-13" value="showAssignedPositions()" style="text;html=1;align=center;verticalAlign=middle;resizable=0;points=[];autosize=1;strokeColor=none;fillColor=none;fontSize=13;fontStyle=2" vertex="1" parent="1">
          <mxGeometry x="-630" y="60" width="170" height="30" as="geometry" />
        </mxCell>
        <mxCell id="nPi77BHWpsiQktwZck_b-14" value="CompanyService" style="shape=umlLifeline;perimeter=lifelinePerimeter;whiteSpace=wrap;html=1;container=1;dropTarget=0;collapsible=0;recursiveResize=0;outlineConnect=0;portConstraint=eastwest;newEdgeStyle={&quot;curved&quot;:0,&quot;rounded&quot;:0};fontSize=14;fontStyle=1" vertex="1" parent="1">
          <mxGeometry x="-260" y="-42" width="140" height="2032" as="geometry" />
        </mxCell>
        <mxCell id="nPi77BHWpsiQktwZck_b-15" value="" style="html=1;points=[[0,0,0,0,5],[0,1,0,0,-5],[1,0,0,0,5],[1,1,0,0,-5]];perimeter=orthogonalPerimeter;outlineConnect=0;targetShapes=umlLifeline;portConstraint=eastwest;newEdgeStyle={&quot;curved&quot;:0,&quot;rounded&quot;:0};strokeColor=#000000;fillColor=#dae8fc;" vertex="1" parent="nPi77BHWpsiQktwZck_b-14">
          <mxGeometry x="65" y="130" width="10" height="140" as="geometry" />
        </mxCell>
        <mxCell id="nPi77BHWpsiQktwZck_b-16" value="retrieveAssignedPositions()" style="text;html=1;align=center;verticalAlign=middle;resizable=0;points=[];autosize=1;strokeColor=none;fillColor=none;fontSize=13;fontStyle=2" vertex="1" parent="1">
          <mxGeometry x="-400" y="90" width="180" height="30" as="geometry" />
        </mxCell>
        <mxCell id="nPi77BHWpsiQktwZck_b-17" value="" style="endArrow=classic;html=1;rounded=0;" edge="1" parent="1" target="nPi77BHWpsiQktwZck_b-15">
          <mxGeometry width="50" height="50" relative="1" as="geometry">
            <mxPoint x="-440.5" y="119" as="sourcePoint" />
            <mxPoint x="-215" y="119" as="targetPoint" />
          </mxGeometry>
        </mxCell>
        <mxCell id="nPi77BHWpsiQktwZck_b-18" value="Company" style="shape=umlLifeline;perimeter=lifelinePerimeter;whiteSpace=wrap;html=1;container=1;dropTarget=0;collapsible=0;recursiveResize=0;outlineConnect=0;portConstraint=eastwest;newEdgeStyle={&quot;curved&quot;:0,&quot;rounded&quot;:0};fontSize=14;fontStyle=1" vertex="1" parent="1">
          <mxGeometry x="-50" y="-42" width="100" height="1720" as="geometry" />
        </mxCell>
        <mxCell id="nPi77BHWpsiQktwZck_b-19" value="" style="html=1;points=[[0,0,0,0,5],[0,1,0,0,-5],[1,0,0,0,5],[1,1,0,0,-5]];perimeter=orthogonalPerimeter;outlineConnect=0;targetShapes=umlLifeline;portConstraint=eastwest;newEdgeStyle={&quot;curved&quot;:0,&quot;rounded&quot;:0};strokeColor=#000000;fillColor=#dae8fc;" vertex="1" parent="nPi77BHWpsiQktwZck_b-18">
          <mxGeometry x="45" y="162" width="10" height="78" as="geometry" />
        </mxCell>
        <mxCell id="nPi77BHWpsiQktwZck_b-20" value="getPositions()" style="text;html=1;align=center;verticalAlign=middle;resizable=0;points=[];autosize=1;strokeColor=none;fillColor=none;fontSize=13;fontStyle=2" vertex="1" parent="1">
          <mxGeometry x="-150" y="120" width="100" height="30" as="geometry" />
        </mxCell>
        <mxCell id="nPi77BHWpsiQktwZck_b-21" value="" style="endArrow=classic;html=1;rounded=0;" edge="1" parent="1" source="nPi77BHWpsiQktwZck_b-15" target="nPi77BHWpsiQktwZck_b-19">
          <mxGeometry width="50" height="50" relative="1" as="geometry">
            <mxPoint x="-270" y="240" as="sourcePoint" />
            <mxPoint x="-220" y="190" as="targetPoint" />
            <Array as="points">
              <mxPoint x="-110" y="150" />
            </Array>
          </mxGeometry>
        </mxCell>
        <mxCell id="nPi77BHWpsiQktwZck_b-22" value="AssignedPositions" style="shape=umlLifeline;perimeter=lifelinePerimeter;whiteSpace=wrap;html=1;container=1;dropTarget=0;collapsible=0;recursiveResize=0;outlineConnect=0;portConstraint=eastwest;newEdgeStyle={&quot;curved&quot;:0,&quot;rounded&quot;:0};fontSize=14;fontStyle=1" vertex="1" parent="1">
          <mxGeometry x="80" y="-40" width="210" height="2040" as="geometry" />
        </mxCell>
        <mxCell id="nPi77BHWpsiQktwZck_b-23" value="" style="html=1;points=[[0,0,0,0,5],[0,1,0,0,-5],[1,0,0,0,5],[1,1,0,0,-5]];perimeter=orthogonalPerimeter;outlineConnect=0;targetShapes=umlLifeline;portConstraint=eastwest;newEdgeStyle={&quot;curved&quot;:0,&quot;rounded&quot;:0};strokeColor=#000000;fillColor=#dae8fc;" vertex="1" parent="nPi77BHWpsiQktwZck_b-22">
          <mxGeometry x="100" y="250" width="10" height="190" as="geometry" />
        </mxCell>
        <mxCell id="nPi77BHWpsiQktwZck_b-24" value="" style="html=1;points=[[0,0,0,0,5],[0,1,0,0,-5],[1,0,0,0,5],[1,1,0,0,-5]];perimeter=orthogonalPerimeter;outlineConnect=0;targetShapes=umlLifeline;portConstraint=eastwest;newEdgeStyle={&quot;curved&quot;:0,&quot;rounded&quot;:0};strokeColor=#000000;fillColor=#dae8fc;" vertex="1" parent="nPi77BHWpsiQktwZck_b-22">
          <mxGeometry x="100" y="1410" width="10" height="90" as="geometry" />
        </mxCell>
        <mxCell id="nPi77BHWpsiQktwZck_b-25" value="return assignedPositions" style="html=1;verticalAlign=bottom;endArrow=open;dashed=1;endSize=8;curved=0;rounded=0;fontSize=13;fontStyle=2" edge="1" parent="1">
          <mxGeometry x="-0.0026" relative="1" as="geometry">
            <mxPoint x="-7.32" y="180" as="sourcePoint" />
            <mxPoint x="-192.68956521739148" y="180" as="targetPoint" />
            <mxPoint as="offset" />
          </mxGeometry>
        </mxCell>
        <mxCell id="nPi77BHWpsiQktwZck_b-26" value="return assignedPositions" style="html=1;verticalAlign=bottom;endArrow=open;dashed=1;endSize=8;curved=0;rounded=0;fontSize=13;fontStyle=2" edge="1" parent="1">
          <mxGeometry x="-0.0026" relative="1" as="geometry">
            <mxPoint x="-190" y="210" as="sourcePoint" />
            <mxPoint x="-435.3695652173915" y="210" as="targetPoint" />
            <mxPoint as="offset" />
          </mxGeometry>
        </mxCell>
        <mxCell id="nPi77BHWpsiQktwZck_b-27" value="" style="endArrow=classic;html=1;rounded=0;" edge="1" parent="1">
          <mxGeometry width="50" height="50" relative="1" as="geometry">
            <mxPoint x="-435" y="260" as="sourcePoint" />
            <mxPoint x="180" y="260" as="targetPoint" />
          </mxGeometry>
        </mxCell>
        <mxCell id="nPi77BHWpsiQktwZck_b-28" value="&quot;call&quot;" style="text;html=1;align=center;verticalAlign=middle;resizable=0;points=[];autosize=1;strokeColor=none;fillColor=none;fontSize=13;fontStyle=2" vertex="1" parent="1">
          <mxGeometry x="-400" y="230" width="50" height="30" as="geometry" />
        </mxCell>
        <mxCell id="nPi77BHWpsiQktwZck_b-31" value="" style="endArrow=classic;html=1;rounded=0;" edge="1" parent="1">
          <mxGeometry width="50" height="50" relative="1" as="geometry">
            <mxPoint x="-835" y="330" as="sourcePoint" />
            <mxPoint x="180" y="330" as="targetPoint" />
          </mxGeometry>
        </mxCell>
        <mxCell id="nPi77BHWpsiQktwZck_b-32" value="selects Student &amp;amp;&amp;nbsp;&lt;div&gt;click &quot;Evaluate&quot;&lt;/div&gt;" style="text;html=1;align=center;verticalAlign=middle;resizable=0;points=[];autosize=1;strokeColor=none;fillColor=none;" vertex="1" parent="1">
          <mxGeometry x="-805" y="290" width="120" height="40" as="geometry" />
        </mxCell>
        <mxCell id="nPi77BHWpsiQktwZck_b-33" value="" style="endArrow=classic;html=1;rounded=0;" edge="1" parent="1">
          <mxGeometry width="50" height="50" relative="1" as="geometry">
            <mxPoint x="179.99999999999955" y="383" as="sourcePoint" />
            <mxPoint x="-435" y="383" as="targetPoint" />
          </mxGeometry>
        </mxCell>
        <mxCell id="nPi77BHWpsiQktwZck_b-34" value="showEvaluationForm()" style="text;html=1;align=center;verticalAlign=middle;resizable=0;points=[];autosize=1;strokeColor=none;fillColor=none;fontSize=13;fontStyle=2" vertex="1" parent="1">
          <mxGeometry x="15" y="348" width="150" height="30" as="geometry" />
        </mxCell>
        <mxCell id="nPi77BHWpsiQktwZck_b-35" value="TraineeshipPositionService" style="shape=umlLifeline;perimeter=lifelinePerimeter;whiteSpace=wrap;html=1;container=1;dropTarget=0;collapsible=0;recursiveResize=0;outlineConnect=0;portConstraint=eastwest;newEdgeStyle={&quot;curved&quot;:0,&quot;rounded&quot;:0};fontSize=14;fontStyle=1" vertex="1" parent="1">
          <mxGeometry x="320" y="-40" width="200" height="2030" as="geometry" />
        </mxCell>
        <mxCell id="nPi77BHWpsiQktwZck_b-36" value="" style="html=1;points=[[0,0,0,0,5],[0,1,0,0,-5],[1,0,0,0,5],[1,1,0,0,-5]];perimeter=orthogonalPerimeter;outlineConnect=0;targetShapes=umlLifeline;portConstraint=eastwest;newEdgeStyle={&quot;curved&quot;:0,&quot;rounded&quot;:0};strokeColor=#000000;fillColor=#dae8fc;" vertex="1" parent="nPi77BHWpsiQktwZck_b-35">
          <mxGeometry x="95" y="430" width="10" height="70" as="geometry" />
        </mxCell>
        <mxCell id="nPi77BHWpsiQktwZck_b-37" value="" style="html=1;points=[[0,0,0,0,5],[0,1,0,0,-5],[1,0,0,0,5],[1,1,0,0,-5]];perimeter=orthogonalPerimeter;outlineConnect=0;targetShapes=umlLifeline;portConstraint=eastwest;newEdgeStyle={&quot;curved&quot;:0,&quot;rounded&quot;:0};strokeColor=#000000;fillColor=#dae8fc;" vertex="1" parent="nPi77BHWpsiQktwZck_b-35">
          <mxGeometry x="95" y="566" width="10" height="74" as="geometry" />
        </mxCell>
        <mxCell id="nPi77BHWpsiQktwZck_b-38" value="" style="endArrow=classic;html=1;rounded=0;" edge="1" parent="1">
          <mxGeometry width="50" height="50" relative="1" as="geometry">
            <mxPoint x="-435" y="419" as="sourcePoint" />
            <mxPoint x="415" y="419" as="targetPoint" />
          </mxGeometry>
        </mxCell>
        <mxCell id="nPi77BHWpsiQktwZck_b-39" value="getPositionByID()" style="text;html=1;align=center;verticalAlign=middle;resizable=0;points=[];autosize=1;strokeColor=none;fillColor=none;fontStyle=2;fontSize=13;" vertex="1" parent="1">
          <mxGeometry x="-410" y="390" width="120" height="30" as="geometry" />
        </mxCell>
        <mxCell id="nPi77BHWpsiQktwZck_b-40" value="TraineeshipDAORerository" style="shape=umlLifeline;perimeter=lifelinePerimeter;whiteSpace=wrap;html=1;container=1;dropTarget=0;collapsible=0;recursiveResize=0;outlineConnect=0;portConstraint=eastwest;newEdgeStyle={&quot;curved&quot;:0,&quot;rounded&quot;:0};fontSize=14;fontStyle=1" vertex="1" parent="1">
          <mxGeometry x="560" y="-42" width="200" height="2032" as="geometry" />
        </mxCell>
        <mxCell id="nPi77BHWpsiQktwZck_b-41" value="" style="html=1;points=[[0,0,0,0,5],[0,1,0,0,-5],[1,0,0,0,5],[1,1,0,0,-5]];perimeter=orthogonalPerimeter;outlineConnect=0;targetShapes=umlLifeline;portConstraint=eastwest;newEdgeStyle={&quot;curved&quot;:0,&quot;rounded&quot;:0};strokeColor=#000000;fillColor=#dae8fc;" vertex="1" parent="nPi77BHWpsiQktwZck_b-40">
          <mxGeometry x="95" y="462" width="10" height="138" as="geometry" />
        </mxCell>
        <mxCell id="nPi77BHWpsiQktwZck_b-130" value="" style="html=1;points=[[0,0,0,0,5],[0,1,0,0,-5],[1,0,0,0,5],[1,1,0,0,-5]];perimeter=orthogonalPerimeter;outlineConnect=0;targetShapes=umlLifeline;portConstraint=eastwest;newEdgeStyle={&quot;curved&quot;:0,&quot;rounded&quot;:0};strokeColor=#000000;fillColor=#dae8fc;" vertex="1" parent="nPi77BHWpsiQktwZck_b-40">
          <mxGeometry x="95" y="682" width="10" height="68" as="geometry" />
        </mxCell>
        <mxCell id="nPi77BHWpsiQktwZck_b-96" value="" style="endArrow=classic;html=1;rounded=0;" edge="1" parent="nPi77BHWpsiQktwZck_b-40" target="nPi77BHWpsiQktwZck_b-99">
          <mxGeometry width="50" height="50" relative="1" as="geometry">
            <mxPoint x="-1395" y="924" as="sourcePoint" />
            <mxPoint x="1184.5" y="924" as="targetPoint" />
          </mxGeometry>
        </mxCell>
        <mxCell id="nPi77BHWpsiQktwZck_b-97" value="alt" style="shape=umlFrame;whiteSpace=wrap;html=1;pointerEvents=0;" vertex="1" parent="nPi77BHWpsiQktwZck_b-40">
          <mxGeometry x="-1520" y="852" width="2200" height="470" as="geometry" />
        </mxCell>
        <mxCell id="nPi77BHWpsiQktwZck_b-98" value="Fill correct the Evaluation" style="text;html=1;align=center;verticalAlign=middle;resizable=0;points=[];autosize=1;strokeColor=#666666;fillColor=#f5f5f5;fontSize=14;fontStyle=2;fontColor=#333333;" vertex="1" parent="nPi77BHWpsiQktwZck_b-40">
          <mxGeometry x="-465" y="882" width="180" height="30" as="geometry" />
        </mxCell>
        <mxCell id="nPi77BHWpsiQktwZck_b-105" value="" style="endArrow=classic;html=1;rounded=0;" edge="1" parent="nPi77BHWpsiQktwZck_b-40" target="nPi77BHWpsiQktwZck_b-104">
          <mxGeometry width="50" height="50" relative="1" as="geometry">
            <mxPoint x="-1000.1060606060605" y="1019" as="sourcePoint" />
            <mxPoint x="1330" y="1019" as="targetPoint" />
          </mxGeometry>
        </mxCell>
        <mxCell id="nPi77BHWpsiQktwZck_b-106" value="saveOrUpdateEvaluation()" style="text;html=1;align=center;verticalAlign=middle;resizable=0;points=[];autosize=1;strokeColor=none;fillColor=none;fontSize=13;fontStyle=2" vertex="1" parent="nPi77BHWpsiQktwZck_b-40">
          <mxGeometry x="-970" y="982" width="180" height="30" as="geometry" />
        </mxCell>
        <mxCell id="nPi77BHWpsiQktwZck_b-108" value="" style="html=1;points=[[0,0,0,0,5],[0,1,0,0,-5],[1,0,0,0,5],[1,1,0,0,-5]];perimeter=orthogonalPerimeter;outlineConnect=0;targetShapes=umlLifeline;portConstraint=eastwest;newEdgeStyle={&quot;curved&quot;:0,&quot;rounded&quot;:0};strokeColor=#000000;fillColor=#dae8fc;" vertex="1" parent="nPi77BHWpsiQktwZck_b-40">
          <mxGeometry x="95" y="1052" width="10" height="60" as="geometry" />
        </mxCell>
        <mxCell id="nPi77BHWpsiQktwZck_b-111" value="save Evaluation" style="text;html=1;align=center;verticalAlign=middle;resizable=0;points=[];autosize=1;strokeColor=none;fillColor=none;fontSize=13;fontStyle=2" vertex="1" parent="nPi77BHWpsiQktwZck_b-40">
          <mxGeometry x="125" y="1082" width="120" height="30" as="geometry" />
        </mxCell>
        <mxCell id="nPi77BHWpsiQktwZck_b-112" value="Fill correct the Evaluation" style="text;html=1;align=center;verticalAlign=middle;resizable=0;points=[];autosize=1;strokeColor=#666666;fillColor=#f5f5f5;fontSize=14;fontStyle=2;fontColor=#333333;" vertex="1" parent="nPi77BHWpsiQktwZck_b-40">
          <mxGeometry x="-460" y="1157" width="180" height="30" as="geometry" />
        </mxCell>
        <mxCell id="nPi77BHWpsiQktwZck_b-113" value="" style="endArrow=classic;html=1;rounded=0;" edge="1" parent="nPi77BHWpsiQktwZck_b-40" target="nPi77BHWpsiQktwZck_b-115">
          <mxGeometry width="50" height="50" relative="1" as="geometry">
            <mxPoint x="-1403" y="1232" as="sourcePoint" />
            <mxPoint x="1180" y="1232" as="targetPoint" />
          </mxGeometry>
        </mxCell>
        <mxCell id="nPi77BHWpsiQktwZck_b-114" value="fill incorrect the evaluation &amp;amp;&amp;nbsp;&lt;div&gt;click Submit Evaluation&lt;/div&gt;" style="text;html=1;align=center;verticalAlign=middle;resizable=0;points=[];autosize=1;strokeColor=none;fillColor=none;fontSize=13;fontStyle=2" vertex="1" parent="nPi77BHWpsiQktwZck_b-40">
          <mxGeometry x="-1390" y="1182" width="190" height="40" as="geometry" />
        </mxCell>
        <mxCell id="nPi77BHWpsiQktwZck_b-121" value="" style="endArrow=classic;html=1;rounded=0;" edge="1" parent="nPi77BHWpsiQktwZck_b-40" target="nPi77BHWpsiQktwZck_b-122">
          <mxGeometry width="50" height="50" relative="1" as="geometry">
            <mxPoint x="-995" y="1370" as="sourcePoint" />
            <mxPoint x="-375.50000000000045" y="1370" as="targetPoint" />
          </mxGeometry>
        </mxCell>
        <mxCell id="nPi77BHWpsiQktwZck_b-42" value="" style="endArrow=classic;html=1;rounded=0;" edge="1" parent="1">
          <mxGeometry width="50" height="50" relative="1" as="geometry">
            <mxPoint x="425" y="442" as="sourcePoint" />
            <mxPoint x="659.5" y="442" as="targetPoint" />
          </mxGeometry>
        </mxCell>
        <mxCell id="nPi77BHWpsiQktwZck_b-43" value="findByID()" style="text;html=1;align=center;verticalAlign=middle;resizable=0;points=[];autosize=1;strokeColor=none;fillColor=none;fontSize=13;fontStyle=2" vertex="1" parent="1">
          <mxGeometry x="500" y="410" width="80" height="30" as="geometry" />
        </mxCell>
        <mxCell id="nPi77BHWpsiQktwZck_b-44" value="Database (MySQL)" style="shape=umlLifeline;perimeter=lifelinePerimeter;whiteSpace=wrap;html=1;container=1;dropTarget=0;collapsible=0;recursiveResize=0;outlineConnect=0;portConstraint=eastwest;newEdgeStyle={&quot;curved&quot;:0,&quot;rounded&quot;:0};fontSize=14;fontStyle=1" vertex="1" parent="1">
          <mxGeometry x="800" y="-42" width="100" height="2032" as="geometry" />
        </mxCell>
        <mxCell id="nPi77BHWpsiQktwZck_b-45" value="" style="html=1;points=[[0,0,0,0,5],[0,1,0,0,-5],[1,0,0,0,5],[1,1,0,0,-5]];perimeter=orthogonalPerimeter;outlineConnect=0;targetShapes=umlLifeline;portConstraint=eastwest;newEdgeStyle={&quot;curved&quot;:0,&quot;rounded&quot;:0};strokeColor=#000000;fillColor=#dae8fc;" vertex="1" parent="nPi77BHWpsiQktwZck_b-44">
          <mxGeometry x="45" y="482" width="10" height="78" as="geometry" />
        </mxCell>
        <mxCell id="nPi77BHWpsiQktwZck_b-46" value="" style="html=1;points=[[0,0,0,0,5],[0,1,0,0,-5],[1,0,0,0,5],[1,1,0,0,-5]];perimeter=orthogonalPerimeter;outlineConnect=0;targetShapes=umlLifeline;portConstraint=eastwest;newEdgeStyle={&quot;curved&quot;:0,&quot;rounded&quot;:0};strokeColor=#000000;fillColor=#dae8fc;" vertex="1" parent="nPi77BHWpsiQktwZck_b-44">
          <mxGeometry x="45" y="1082" width="10" height="48" as="geometry" />
        </mxCell>
        <mxCell id="nPi77BHWpsiQktwZck_b-47" value="return Position" style="html=1;verticalAlign=bottom;endArrow=open;dashed=1;endSize=8;curved=0;rounded=0;fontSize=13;fontStyle=2;exitX=0;exitY=1;exitDx=0;exitDy=-5;exitPerimeter=0;" edge="1" parent="1" source="nPi77BHWpsiQktwZck_b-45" target="nPi77BHWpsiQktwZck_b-40">
          <mxGeometry x="-0.0026" relative="1" as="geometry">
            <mxPoint x="829.5" y="510" as="sourcePoint" />
            <mxPoint x="690" y="510" as="targetPoint" />
            <mxPoint as="offset" />
          </mxGeometry>
        </mxCell>
        <mxCell id="nPi77BHWpsiQktwZck_b-48" value="" style="endArrow=classic;html=1;rounded=0;" edge="1" parent="1">
          <mxGeometry width="50" height="50" relative="1" as="geometry">
            <mxPoint x="665" y="481" as="sourcePoint" />
            <mxPoint x="845" y="481" as="targetPoint" />
          </mxGeometry>
        </mxCell>
        <mxCell id="nPi77BHWpsiQktwZck_b-49" value="find Position" style="text;html=1;align=center;verticalAlign=middle;resizable=0;points=[];autosize=1;strokeColor=none;fillColor=none;fontSize=13;fontStyle=2" vertex="1" parent="1">
          <mxGeometry x="710" y="450" width="90" height="30" as="geometry" />
        </mxCell>
        <mxCell id="nPi77BHWpsiQktwZck_b-50" value="return Position" style="html=1;verticalAlign=bottom;endArrow=open;dashed=1;endSize=8;curved=0;rounded=0;fontSize=13;fontStyle=2;exitX=0;exitY=1;exitDx=0;exitDy=-5;exitPerimeter=0;" edge="1" parent="1" source="nPi77BHWpsiQktwZck_b-41" target="nPi77BHWpsiQktwZck_b-35">
          <mxGeometry x="-0.0026" relative="1" as="geometry">
            <mxPoint x="646" y="550" as="sourcePoint" />
            <mxPoint x="460" y="550" as="targetPoint" />
            <mxPoint as="offset" />
          </mxGeometry>
        </mxCell>
        <mxCell id="nPi77BHWpsiQktwZck_b-93" value="Evaluate" style="shape=umlLifeline;perimeter=lifelinePerimeter;whiteSpace=wrap;html=1;container=1;dropTarget=0;collapsible=0;recursiveResize=0;outlineConnect=0;portConstraint=eastwest;newEdgeStyle={&quot;curved&quot;:0,&quot;rounded&quot;:0};fontSize=14;fontStyle=1" vertex="1" parent="1">
          <mxGeometry x="920" y="-42" width="90" height="2052" as="geometry" />
        </mxCell>
        <mxCell id="nPi77BHWpsiQktwZck_b-126" value="" style="html=1;points=[[0,0,0,0,5],[0,1,0,0,-5],[1,0,0,0,5],[1,1,0,0,-5]];perimeter=orthogonalPerimeter;outlineConnect=0;targetShapes=umlLifeline;portConstraint=eastwest;newEdgeStyle={&quot;curved&quot;:0,&quot;rounded&quot;:0};strokeColor=#000000;fillColor=#dae8fc;" vertex="1" parent="nPi77BHWpsiQktwZck_b-93">
          <mxGeometry x="40" y="762" width="10" height="58" as="geometry" />
        </mxCell>
        <mxCell id="nPi77BHWpsiQktwZck_b-99" value="" style="html=1;points=[[0,0,0,0,5],[0,1,0,0,-5],[1,0,0,0,5],[1,1,0,0,-5]];perimeter=orthogonalPerimeter;outlineConnect=0;targetShapes=umlLifeline;portConstraint=eastwest;newEdgeStyle={&quot;curved&quot;:0,&quot;rounded&quot;:0};strokeColor=#000000;fillColor=#dae8fc;" vertex="1" parent="nPi77BHWpsiQktwZck_b-93">
          <mxGeometry x="40" y="900" width="10" height="90" as="geometry" />
        </mxCell>
        <mxCell id="nPi77BHWpsiQktwZck_b-95" value="" style="endArrow=classic;html=1;rounded=0;" edge="1" parent="1">
          <mxGeometry width="50" height="50" relative="1" as="geometry">
            <mxPoint x="-435" y="760" as="sourcePoint" />
            <mxPoint x="960" y="755" as="targetPoint" />
          </mxGeometry>
        </mxCell>
        <mxCell id="nPi77BHWpsiQktwZck_b-103" value="EvaluationService" style="shape=umlLifeline;perimeter=lifelinePerimeter;whiteSpace=wrap;html=1;container=1;dropTarget=0;collapsible=0;recursiveResize=0;outlineConnect=0;portConstraint=eastwest;newEdgeStyle={&quot;curved&quot;:0,&quot;rounded&quot;:0};fontSize=14;fontStyle=1" vertex="1" parent="1">
          <mxGeometry x="1040" y="-40" width="130" height="2030" as="geometry" />
        </mxCell>
        <mxCell id="nPi77BHWpsiQktwZck_b-94" value="" style="html=1;points=[[0,0,0,0,5],[0,1,0,0,-5],[1,0,0,0,5],[1,1,0,0,-5]];perimeter=orthogonalPerimeter;outlineConnect=0;targetShapes=umlLifeline;portConstraint=eastwest;newEdgeStyle={&quot;curved&quot;:0,&quot;rounded&quot;:0};strokeColor=#000000;fillColor=#dae8fc;" vertex="1" parent="nPi77BHWpsiQktwZck_b-103">
          <mxGeometry x="60" y="620" width="10" height="150" as="geometry" />
        </mxCell>
        <mxCell id="nPi77BHWpsiQktwZck_b-104" value="" style="html=1;points=[[0,0,0,0,5],[0,1,0,0,-5],[1,0,0,0,5],[1,1,0,0,-5]];perimeter=orthogonalPerimeter;outlineConnect=0;targetShapes=umlLifeline;portConstraint=eastwest;newEdgeStyle={&quot;curved&quot;:0,&quot;rounded&quot;:0};strokeColor=#000000;fillColor=#dae8fc;" vertex="1" parent="nPi77BHWpsiQktwZck_b-103">
          <mxGeometry x="60" y="990" width="10" height="90" as="geometry" />
        </mxCell>
        <mxCell id="nPi77BHWpsiQktwZck_b-115" value="" style="html=1;points=[[0,0,0,0,5],[0,1,0,0,-5],[1,0,0,0,5],[1,1,0,0,-5]];perimeter=orthogonalPerimeter;outlineConnect=0;targetShapes=umlLifeline;portConstraint=eastwest;newEdgeStyle={&quot;curved&quot;:0,&quot;rounded&quot;:0};strokeColor=#000000;fillColor=#dae8fc;" vertex="1" parent="nPi77BHWpsiQktwZck_b-103">
          <mxGeometry x="60" y="1230" width="10" height="90" as="geometry" />
        </mxCell>
        <mxCell id="nPi77BHWpsiQktwZck_b-119" value="&quot;call&quot;" style="text;html=1;align=center;verticalAlign=middle;resizable=0;points=[];autosize=1;strokeColor=none;fillColor=none;fontSize=13;fontStyle=2" vertex="1" parent="1">
          <mxGeometry x="-415" y="730" width="50" height="30" as="geometry" />
        </mxCell>
        <mxCell id="nPi77BHWpsiQktwZck_b-124" value="" style="html=1;points=[[0,0,0,0,5],[0,1,0,0,-5],[1,0,0,0,5],[1,1,0,0,-5]];perimeter=orthogonalPerimeter;outlineConnect=0;targetShapes=umlLifeline;portConstraint=eastwest;newEdgeStyle={&quot;curved&quot;:0,&quot;rounded&quot;:0};strokeColor=#000000;fillColor=#dae8fc;" vertex="1" parent="1">
          <mxGeometry x="-445" y="556" width="10" height="224" as="geometry" />
        </mxCell>
        <mxCell id="nPi77BHWpsiQktwZck_b-125" value="return Position" style="html=1;verticalAlign=bottom;endArrow=open;dashed=1;endSize=8;curved=0;rounded=0;fontSize=13;fontStyle=2;exitX=0;exitY=1;exitDx=0;exitDy=-5;exitPerimeter=0;" edge="1" parent="1">
          <mxGeometry x="-0.0026" relative="1" as="geometry">
            <mxPoint x="418" y="579.41" as="sourcePoint" />
            <mxPoint x="-435" y="579.4099999999994" as="targetPoint" />
            <mxPoint as="offset" />
          </mxGeometry>
        </mxCell>
        <mxCell id="nPi77BHWpsiQktwZck_b-127" value="getEvaluation()" style="text;html=1;align=center;verticalAlign=middle;resizable=0;points=[];autosize=1;strokeColor=none;fillColor=none;fontSize=13;fontStyle=2" vertex="1" parent="1">
          <mxGeometry x="-405" y="593" width="110" height="30" as="geometry" />
        </mxCell>
        <mxCell id="nPi77BHWpsiQktwZck_b-128" value="" style="endArrow=classic;html=1;rounded=0;" edge="1" parent="1">
          <mxGeometry width="50" height="50" relative="1" as="geometry">
            <mxPoint x="-440.8333333333335" y="620" as="sourcePoint" />
            <mxPoint x="1100" y="620" as="targetPoint" />
          </mxGeometry>
        </mxCell>
        <mxCell id="nPi77BHWpsiQktwZck_b-131" value="findById()" style="text;html=1;align=center;verticalAlign=middle;resizable=0;points=[];autosize=1;strokeColor=none;fillColor=none;fontSize=13;fontStyle=2" vertex="1" parent="1">
          <mxGeometry x="1000" y="630" width="80" height="30" as="geometry" />
        </mxCell>
        <mxCell id="nPi77BHWpsiQktwZck_b-132" value="" style="endArrow=classic;html=1;rounded=0;" edge="1" parent="1" source="nPi77BHWpsiQktwZck_b-103" target="nPi77BHWpsiQktwZck_b-130">
          <mxGeometry width="50" height="50" relative="1" as="geometry">
            <mxPoint x="790" y="610" as="sourcePoint" />
            <mxPoint x="840" y="560" as="targetPoint" />
            <Array as="points">
              <mxPoint x="880" y="660" />
            </Array>
          </mxGeometry>
        </mxCell>
        <mxCell id="nPi77BHWpsiQktwZck_b-133" value="return Position.getEvaluations()" style="html=1;verticalAlign=bottom;endArrow=open;dashed=1;endSize=8;curved=0;rounded=0;fontSize=13;fontStyle=2;" edge="1" parent="1">
          <mxGeometry x="-0.0026" relative="1" as="geometry">
            <mxPoint x="665" y="689.9999999999995" as="sourcePoint" />
            <mxPoint x="1104.5000000000005" y="689.9999999999995" as="targetPoint" />
            <mxPoint as="offset" />
          </mxGeometry>
        </mxCell>
        <mxCell id="nPi77BHWpsiQktwZck_b-134" value="return Evaluation" style="html=1;verticalAlign=bottom;endArrow=open;dashed=1;endSize=8;curved=0;rounded=0;fontSize=13;fontStyle=2;" edge="1" parent="1">
          <mxGeometry x="-0.0026" relative="1" as="geometry">
            <mxPoint x="1104.4999999999995" y="714" as="sourcePoint" />
            <mxPoint x="-435" y="714" as="targetPoint" />
            <mxPoint as="offset" />
          </mxGeometry>
        </mxCell>
        <mxCell id="nPi77BHWpsiQktwZck_b-101" value="saveEvaluation()" style="text;html=1;align=center;verticalAlign=middle;resizable=0;points=[];autosize=1;strokeColor=none;fillColor=none;fontStyle=2;fontSize=13;" vertex="1" parent="1">
          <mxGeometry x="820" y="900" width="120" height="30" as="geometry" />
        </mxCell>
        <mxCell id="nPi77BHWpsiQktwZck_b-11" value="" style="html=1;points=[[0,0,0,0,5],[0,1,0,0,-5],[1,0,0,0,5],[1,1,0,0,-5]];perimeter=orthogonalPerimeter;outlineConnect=0;targetShapes=umlLifeline;portConstraint=eastwest;newEdgeStyle={&quot;curved&quot;:0,&quot;rounded&quot;:0};strokeColor=#000000;fillColor=#dae8fc;" vertex="1" parent="1">
          <mxGeometry x="-445" y="900" width="10" height="90" as="geometry" />
        </mxCell>
        <mxCell id="nPi77BHWpsiQktwZck_b-102" value="" style="endArrow=classic;html=1;rounded=0;" edge="1" parent="1">
          <mxGeometry width="50" height="50" relative="1" as="geometry">
            <mxPoint x="964.5" y="925" as="sourcePoint" />
            <mxPoint x="-435" y="925" as="targetPoint" />
          </mxGeometry>
        </mxCell>
        <mxCell id="nPi77BHWpsiQktwZck_b-107" value="" style="endArrow=classic;html=1;rounded=0;" edge="1" parent="1" target="nPi77BHWpsiQktwZck_b-108">
          <mxGeometry width="50" height="50" relative="1" as="geometry">
            <mxPoint x="1100" y="1021" as="sourcePoint" />
            <mxPoint x="675" y="1021" as="targetPoint" />
          </mxGeometry>
        </mxCell>
        <mxCell id="nPi77BHWpsiQktwZck_b-109" value="save()" style="text;html=1;align=center;verticalAlign=middle;resizable=0;points=[];autosize=1;strokeColor=none;fillColor=none;fontSize=13;fontStyle=2" vertex="1" parent="1">
          <mxGeometry x="1010" y="990" width="60" height="30" as="geometry" />
        </mxCell>
        <mxCell id="nPi77BHWpsiQktwZck_b-116" value="show error&amp;nbsp;&lt;div&gt;message&lt;/div&gt;" style="html=1;align=left;spacingLeft=2;endArrow=block;rounded=0;edgeStyle=orthogonalEdgeStyle;curved=0;rounded=0;fontSize=13;fontStyle=2" edge="1" parent="1">
          <mxGeometry relative="1" as="geometry">
            <mxPoint x="1110" y="1230" as="sourcePoint" />
            <Array as="points">
              <mxPoint x="1140" y="1260" />
            </Array>
            <mxPoint x="1115" y="1260.0588235294122" as="targetPoint" />
          </mxGeometry>
        </mxCell>
        <mxCell id="nPi77BHWpsiQktwZck_b-110" value="" style="endArrow=classic;html=1;rounded=0;" edge="1" parent="1" target="nPi77BHWpsiQktwZck_b-46">
          <mxGeometry width="50" height="50" relative="1" as="geometry">
            <mxPoint x="660" y="1065" as="sourcePoint" />
            <mxPoint x="750" y="980" as="targetPoint" />
          </mxGeometry>
        </mxCell>
        <mxCell id="nPi77BHWpsiQktwZck_b-100" value="fill correct the evaluation &amp;amp;&amp;nbsp;&lt;div&gt;click Submit Evaluation&lt;/div&gt;" style="text;html=1;align=center;verticalAlign=middle;resizable=0;points=[];autosize=1;strokeColor=none;fillColor=none;fontSize=13;fontStyle=2" vertex="1" parent="1">
          <mxGeometry x="-825" y="845" width="180" height="40" as="geometry" />
        </mxCell>
        <mxCell id="nPi77BHWpsiQktwZck_b-117" value="" style="endArrow=classic;html=1;rounded=0;" edge="1" parent="1">
          <mxGeometry width="50" height="50" relative="1" as="geometry">
            <mxPoint x="-435" y="1395" as="sourcePoint" />
            <mxPoint x="184.49999999999955" y="1395" as="targetPoint" />
          </mxGeometry>
        </mxCell>
        <mxCell id="nPi77BHWpsiQktwZck_b-118" value="&quot;call&quot;" style="text;html=1;align=center;verticalAlign=middle;resizable=0;points=[];autosize=1;strokeColor=none;fillColor=none;fontSize=13;fontStyle=2" vertex="1" parent="1">
          <mxGeometry x="-405" y="1370" width="50" height="30" as="geometry" />
        </mxCell>
        <mxCell id="nPi77BHWpsiQktwZck_b-135" value="sendEmail()" style="html=1;align=left;spacingLeft=2;endArrow=block;rounded=0;edgeStyle=orthogonalEdgeStyle;curved=0;rounded=0;fontSize=13;fontStyle=2" edge="1" parent="1">
          <mxGeometry relative="1" as="geometry">
            <mxPoint x="-440.05999999999995" y="1320.06" as="sourcePoint" />
            <Array as="points">
              <mxPoint x="-410.05999999999995" y="1350.06" />
            </Array>
            <mxPoint x="-435.05999999999995" y="1350.118823529412" as="targetPoint" />
          </mxGeometry>
        </mxCell>
        <mxCell id="nPi77BHWpsiQktwZck_b-120" value="show successful&amp;nbsp;&lt;div&gt;message&lt;/div&gt;" style="html=1;align=left;spacingLeft=2;endArrow=block;rounded=0;edgeStyle=orthogonalEdgeStyle;curved=0;rounded=0;fontSize=13;fontStyle=2" edge="1" parent="1">
          <mxGeometry relative="1" as="geometry">
            <mxPoint x="190" y="1420.06" as="sourcePoint" />
            <Array as="points">
              <mxPoint x="220" y="1450.06" />
            </Array>
            <mxPoint x="195" y="1450.118823529412" as="targetPoint" />
          </mxGeometry>
        </mxCell>
      </root>
    </mxGraphModel>
  </diagram>
</mxfile>
